<svg xmlns="http://www.w3.org/2000/svg" version="1.1" xmlns:xlink="http://www.w3.org/1999/xlink" xmlns:svgjs="http://svgjs.dev/svgjs" viewBox="0 0 800 800"><defs><filter id="llleaves-blur-2" x="-100%" y="-100%" width="400%" height="400%"><feGaussianBlur in="SourceGraphic" stdDeviation="2"></feGaussianBlur></filter><filter id="llleaves-blur-3" x="-100%" y="-100%" width="400%" height="400%"><feGaussianBlur in="SourceGraphic" stdDeviation="4"></feGaussianBlur></filter><filter id="llleaves-blur-4" x="-100%" y="-100%" width="400%" height="400%"><feGaussianBlur in="SourceGraphic" stdDeviation="12"></feGaussianBlur></filter></defs><g fill="hsl(334, 82%, 51%)"><path d="M621 625H671C699 625 721 647 721 675H671C643 675 621 653 621 625Z " transform="matrix(-0.24552408405009707,-0.3929206694165473,0.3929206694165473,-0.24552408405009707,580.3482252768595,1073.2404238110664)" opacity="0.71"></path><path d="M559 543H609C637 543 659 565 659 593H609C581 593 559 571 559 543Z " transform="matrix(-0.3301463050437084,-0.2869918045135262,0.2869918045135262,-0.3301463050437084,647.0477548079356,930.3011102135638)" opacity="0.67"></path><path d="M93 325H143C171 325 193 347 193 375H143C115 375 93 353 93 325Z " transform="matrix(-0.04401483511637869,-0.5030918674776246,0.5030918674776246,-0.04401483511637869,-26.788032195526483,437.3473293400328)" opacity="0.78"></path><path d="M96 621H146C174 621 196 643 196 671H146C118 671 96 649 96 621Z " transform="matrix(-0.04401483511637869,-0.5030918674776246,0.5030918674776246,-0.04401483511637869,-172.57118046355424,747.8849961369137)" opacity="0.78"></path><path d="M-5 188H45C73 188 95 210 95 238H45C17 238 -5 216 -5 188Z " transform="matrix(0.018010148492178094,-0.5157431738849279,0.5157431738849279,0.018010148492178094,-65.66375271963767,232.37228119598782)" opacity="0.79"></path><path d="M261 537H311C339 537 361 559 361 587H311C283 587 261 565 261 537Z " transform="matrix(-0.26305296151103336,-0.3756785626495922,0.3756785626495922,-0.26305296151103336,181.67811882086056,826.6717973532238)" opacity="0.70"></path><path d="M252 436H302C330 436 352 458 352 486H302C274 486 252 464 252 436Z " transform="matrix(-0.26305296151103336,-0.3756785626495922,0.3756785626495922,-0.26305296151103336,208.25417699487008,695.7223411767632)" opacity="0.70"></path><path d="M192 177H242C270 177 292 199 292 227H242C214 227 192 205 192 177Z " transform="matrix(-0.17223195620757606,-0.44867958570717753,0.44867958570717753,-0.17223195620757606,193.04685708938354,345.37131489506737)" opacity="0.74"></path><path d="M618 473H668C696 473 718 495 718 523H668C640 523 618 501 618 473Z " transform="matrix(-0.24552408405009707,-0.3929206694165473,0.3929206694165473,-0.24552408405009707,636.3355947760243,882.7420010272019)" opacity="0.71"></path><path d="M-6 631H44C72 631 94 653 94 681H44C16 681 -6 659 -6 631Z " transform="matrix(0.018010148492178094,-0.5157431738849279,0.5157431738849279,0.018010148492178094,-295.1199686021685,666.878042240068)" opacity="0.79"></path><path d="M196 627H246C274 627 296 649 296 677H246C218 677 196 655 196 627Z " transform="matrix(-0.17223195620757606,-0.44867958570717753,0.44867958570717753,-0.17223195620757606,-4.170028654016079,874.6704135313054)" opacity="0.74"></path><path d="M618 369H668C696 369 718 391 718 419H668C640 419 618 397 618 369Z " transform="matrix(-0.24552408405009707,-0.3929206694165473,0.3929206694165473,-0.24552408405009707,677.1993443953452,753.2074962859917)" opacity="0.71"></path><path d="M617 123H667C695 123 717 145 717 173H667C639 173 617 151 617 123Z " transform="matrix(-0.10284094279267271,-0.4838285959495582,0.4838285959495582,-0.10284094279267271,663.9882766421781,485.93413303167085)" opacity="0.76"></path><path d="M179 272H229C257 272 279 294 279 322H229C201 322 179 300 179 272Z " transform="matrix(-0.15003514677323357,-0.4617607012216536,0.4617607012216536,-0.15003514677323357,126.21512034823937,447.30363917140903)" opacity="0.75"></path><path d="M353 455H403C431 455 453 477 453 505H403C375 505 353 483 353 455Z " transform="matrix(-0.35075513926514806,-0.24560139257925304,0.24560139257925304,-0.35075513926514806,426.4656526858132,747.3398280567101)" opacity="0.66"></path><path d="M254 104H304C332 104 354 126 354 154H304C276 154 254 132 254 104Z " transform="matrix(-0.3306016922611457,-0.28738766658221554,0.28738766658221554,-0.3306016922611457,367.4299054582825,259.01346894268136)" opacity="0.67"></path><path d="M523 649H573C601 649 623 671 623 699H573C545 699 523 677 523 649Z " transform="matrix(-0.3505615579512822,-0.24546584548402764,0.24546584548402764,-0.3505615579512822,608.4277928498501,1050.930419521512)" opacity="0.66"></path><path d="M695 728H745C773 728 795 750 795 778H745C717 778 695 756 695 728Z " transform="matrix(-0.10264579860591869,-0.4829105147328655,0.4829105147328655,-0.10264579860591869,457.8395023675617,1190.0606198262417)" opacity="0.76"></path><path d="M124 110H174C202 110 224 132 224 160H174C146 160 124 138 124 110Z " transform="matrix(-0.2070425159716307,-0.42450006586687683,0.42450006586687683,-0.2070425159716307,152.71788888703537,236.81375111700672)" opacity="0.73"></path><path d="M435 364H485C513 364 535 386 535 414H485C457 414 435 392 435 364Z " transform="matrix(-0.3689849085341365,-0.19619275600834848,0.19619275600834848,-0.3689849085341365,587.6386985518086,627.6886160838282)" opacity="0.64"></path><path d="M-8 467H42C70 467 92 489 92 517H42C14 517 -8 495 -8 467Z " transform="matrix(0.018010148492178094,-0.5157431738849279,0.5157431738849279,0.018010148492178094,-212.502067788056,504.80022024501534)" opacity="0.79"></path><path d="M470 733H520C548 733 570 755 570 783H520C492 783 470 761 470 733Z " transform="matrix(-0.3668355903547544,-0.20334028812866037,0.20334028812866037,-0.3668355903547544,556.6225685829477,1141.798327315807)" opacity="0.64"></path><path d="M359 115H409C437 115 459 137 459 165H409C381 165 359 143 359 115Z " transform="matrix(-0.35038511093289487,-0.24534229595165818,0.24534229595165818,-0.35038511093289487,517.9595889383219,289.3989145748335)" opacity="0.66"></path><path d="M352 732H402C430 732 452 754 452 782H402C374 782 352 760 352 732Z " transform="matrix(-0.35075513926514806,-0.24560139257925304,0.24560139257925304,-0.35075513926514806,357.08331180209495,1121.2534002405769)" opacity="0.66"></path><path d="M364 555H414C442 555 464 577 464 605H414C386 605 364 583 364 555Z " transform="matrix(-0.35075513926514806,-0.24560139257925304,0.24560139257925304,-0.35075513926514806,416.7638199598045,885.1169573015966)" opacity="0.66"></path><path d="M178 385H228C256 385 278 407 278 435H228C200 435 178 413 178 385Z " transform="matrix(-0.15003514677323357,-0.4617607012216536,0.4617607012216536,-0.15003514677323357,72.88612596341929,576.7958500555627)" opacity="0.75"></path><path d="M1 374H51C79 374 101 396 101 424H51C23 424 1 402 1 374Z " transform="matrix(0.01797816989753057,-0.5148274267489696,0.5148274267489696,0.01797816989753057,-155.33302993761296,418.0829089750827)" opacity="0.79"></path><path d="M532 331H582C610 331 632 353 632 381H582C554 381 532 359 532 331Z " transform="matrix(-0.3505615579512822,-0.24546584548402764,0.24546584548402764,-0.3505615579512822,698.6409857353324,623.6610367023605)" opacity="0.66"></path><path d="M538 174H588C616 174 638 196 638 224H588C560 224 538 202 538 174Z " transform="matrix(-0.3407004811545532,-0.26618438886997486,0.26618438886997486,-0.3407004811545532,735.3611895337523,423.31581640530135)" opacity="0.66"></path><path d="M695 536H745C773 536 795 558 795 586H745C717 586 695 564 695 536Z " transform="matrix(-0.10264579860591869,-0.4829105147328655,0.4829105147328655,-0.10264579860591869,550.5583211962719,978.3526264939051)" opacity="0.76"></path><path d="M504 76H554C582 76 604 98 604 126H554C526 126 504 104 504 76Z " transform="matrix(-0.26921047738312776,-0.3705364338715507,0.3705364338715507,-0.26921047738312776,665.7184246492261,333.46744258053496)" opacity="0.70"></path><path d="M708 121H758C786 121 808 143 808 171H758C730 171 708 149 708 121Z " transform="matrix(0.12915997070617855,-0.5180323478843897,0.5180323478843897,0.12915997070617855,584.4640194135958,519.8111639732654)" opacity="0.82"></path><path d="M465 571H515C543 571 565 593 565 621H515C487 621 465 599 465 571Z " transform="matrix(-0.3692816262134709,-0.1963505235969913,0.1963505235969913,-0.3692816262134709,588.1551254361307,917.2123688756792)" opacity="0.64"></path><path d="M26 543H76C104 543 126 565 126 593H76C48 593 26 571 26 543Z " transform="matrix(0.008968114029221591,-0.5137829086343916,0.5137829086343916,0.008968114029221591,-216.51026877055529,601.9536122876159)" opacity="0.79"></path><path d="M124 724H174C202 724 224 746 224 774H174C146 774 124 752 124 724Z " transform="matrix(-0.07795293485104042,-0.4921754604891208,0.4921754604891208,-0.07795293485104042,-181.0756092422705,893.0252783285364)" opacity="0.77"></path><path d="M97 21H147C175 21 197 43 197 71H147C119 71 97 49 97 21Z " transform="matrix(-0.38289709289056584,-0.12441080711046569,0.12441080711046569,-0.38289709289056584,197.56297552783175,81.90165491820449)" opacity="0.62"></path><path d="M-3 19H47C75 19 97 41 97 69H47C19 69 -3 47 -3 19Z " transform="matrix(-0.38272556219949333,-0.1317829793770969,0.1317829793770969,-0.38272556219949333,59.18965033078392,67.03372476750127)" opacity="0.62"></path><path d="M237 727H287C315 727 337 749 337 777H287C259 777 237 755 237 727Z " transform="matrix(-0.2460543340073062,-0.3937692467320916,0.3937692467320916,-0.2460543340073062,61.50312031756397,1050.0446329856045)" opacity="0.71"></path><path d="M709 633H759C787 633 809 655 809 683H759C731 683 709 661 709 633Z " transform="matrix(-0.061086477347223896,-0.49750943358041516,0.49750943358041516,-0.061086477347223896,478.00342901062976,1075.8045621820083)" opacity="0.77"></path><path d="M377 256H427C455 256 477 278 477 306H427C399 306 377 284 377 256Z " transform="matrix(-0.35616646276874614,-0.23129720536432216,0.23129720536432216,-0.35616646276874614,514.08856489488,479.84668272858323)" opacity="0.65"></path></g><g fill="none" stroke-width="3" stroke="hsl(334, 82%, 51%)"><path d="M448 478H498C526 478 548 500 548 528H498C470 528 448 506 448 478Z " transform="matrix(-0.3689849085341365,-0.19619275600834848,0.19619275600834848,-0.3689849085341365,583.0695281778007,786.3034014848281)" opacity="0.64"></path><path d="M409 651H459C487 651 509 673 509 701H459C431 701 409 679 409 651Z " transform="matrix(-0.36710489431424326,-0.2034895657509971,0.2034895657509971,-0.36710489431424326,489.94220004256357,1017.564619236136)" opacity="0.64"></path><path d="M317 20H367C395 20 417 42 417 70H367C339 70 317 48 317 20Z " transform="matrix(-0.3806719501448664,-0.1385532588727991,0.1385532588727991,-0.3806719501448664,500.47170905389,112.97928376283626)" opacity="0.62"></path><path d="M90 212H140C168 212 190 234 190 262H140C112 262 90 240 90 212Z " transform="matrix(-0.04401483511637869,-0.5030918674776246,0.5030918674776246,-0.04401483511637869,26.92930432409598,317.86437736944924)" opacity="0.78"></path><path d="M692 23H742C770 23 792 45 792 73H742C714 73 692 51 692 23Z " transform="matrix(0.40322685744575937,-0.41755363421959324,0.41755363421959324,0.40322685744575937,422.763097332706,338.4699074335418)" opacity="0.89"></path><path d="M338 359H388C416 359 438 381 438 409H388C360 409 338 387 338 359Z " transform="matrix(-0.3406602100817788,-0.26615292565965226,0.26615292565965226,-0.3406602100817788,417.9734380584237,618.0808558273482)" opacity="0.66"></path><path d="M527 432H577C605 432 627 454 627 482H577C549 482 527 460 527 432Z " transform="matrix(-0.3505615579512822,-0.24546584548402764,0.24546584548402764,-0.3505615579512822,667.0961275516892,758.8404248280198)" opacity="0.66"></path><path d="M703 322H753C781 322 803 344 803 372H753C725 372 703 350 703 322Z " transform="matrix(-0.061086477347223896,-0.49750943358041516,0.49750943358041516,-0.061086477347223896,626.3623439900555,742.8216111255392)" opacity="0.77"></path><path d="M577 18H627C655 18 677 40 677 68H627C599 68 577 46 577 18Z " transform="matrix(0.02704251909278269,-0.5160020031898852,0.5160020031898852,0.02704251909278269,587.8562543916602,365.37042767906837)" opacity="0.79"></path><path d="M706 430H756C784 430 806 452 806 480H756C728 480 706 458 706 430Z " transform="matrix(-0.061086477347223896,-0.49750943358041516,0.49750943358041516,-0.061086477347223896,575.8145845954124,858.9114789797807)" opacity="0.77"></path><path d="M10 727H60C88 727 110 749 110 777H60C32 777 10 755 10 727Z " transform="matrix(0.01797816989753057,-0.5148274267489696,0.5148274267489696,0.01797816989753057,-328.22891510907704,769.3700618419952)" opacity="0.79"></path><path d="M431 21H481C509 21 531 43 531 71H481C453 71 431 49 431 21Z " transform="matrix(-0.33808257988611073,-0.27377387509314804,0.27377387509314804,-0.33808257988611073,631.0241226709345,193.23703259456528)" opacity="0.67"></path><path d="M90 440H140C168 440 190 462 190 490H140C112 490 90 468 90 440Z " transform="matrix(-0.04401483511637869,-0.5030918674776246,0.5030918674776246,-0.04401483511637869,-87.77564146080243,555.8997597759835)" opacity="0.78"></path><path d="M604 253H654C682 253 704 275 704 303H654C626 303 604 281 604 253Z " transform="matrix(-0.2745445177653555,-0.36433288060478763,0.36433288060478763,-0.2745445177653555,732.2675738104115,592.5970798542999)" opacity="0.70"></path><path d="M698 220H748C776 220 798 242 798 270H748C720 270 698 248 698 220Z " transform="matrix(-0.10264579860591869,-0.4829105147328655,0.4829105147328655,-0.10264579860591869,706.4659812476751,631.3652856786334)" opacity="0.76"></path><path d="M202 22H252C280 22 302 44 302 72H252C224 72 202 50 202 22Z " transform="matrix(-0.3845150105292046,-0.10303048654894484,0.10303048654894484,-0.3845150105292046,344.05534978555914,91.03588810520671)" filter="url(#llleaves-blur-2)" opacity="0.61"></path><path d="M587 729H637C665 729 687 751 687 779H637C609 779 587 757 587 729Z " transform="matrix(-0.29486343618095123,-0.33920158142719437,0.33920158142719437,-0.29486343618095123,569.0700164511613,1192.39843824956)" opacity="0.69"></path><path d="M264 309H314C342 309 364 331 364 359H314C286 359 264 337 264 309Z " transform="matrix(-0.26305296151103336,-0.3756785626495922,0.3756785626495922,-0.26305296151103336,271.12198998950066,539.822757816657)" opacity="0.70"></path><path d="M301 640H351C379 640 401 662 401 690H351C323 690 301 668 301 640Z " transform="matrix(-0.31792943197405626,-0.3070208836381354,0.3070208836381354,-0.31792943197405626,258.4243430035337,984.187402419733)" opacity="0.68"></path><path d="M154 517H204C232 517 254 539 254 567H204C176 567 154 545 154 517Z " transform="matrix(-0.1268552945866021,-0.47343040460631647,0.47343040460631647,-0.1268552945866021,-26.720799200956748,707.3353722056269)" opacity="0.75"></path><path d="M12 105H62C90 105 112 127 112 155H62C34 155 12 133 12 105Z " transform="matrix(-0.20728209636994893,-0.4249912784779158,0.4249912784779158,-0.20728209636994893,19.60262377280778,183.29613179372416)" opacity="0.73"></path><path d="M0 280H50C78 280 100 302 100 330H50C22 330 0 308 0 280Z " transform="matrix(0.01797816989753057,-0.5148274267489696,0.5148274267489696,0.01797816989753057,-107.92127365331228,325.2580295187017)" opacity="0.79"></path><path d="M437 160H487C515 160 537 182 537 210H487C459 210 437 188 437 160Z " transform="matrix(-0.3689849085341365,-0.19619275600834848,0.19619275600834848,-0.3689849085341365,630.39999059458,348.80808025488096)" opacity="0.64"></path><path d="M292 204H342C370 204 392 226 392 254H342C314 254 292 232 292 204Z " transform="matrix(-0.30508518905836507,-0.327163810638155,0.327163810638155,-0.30508518905836507,371.41862202182335,410.7545315326147)" opacity="0.69"></path><path d="M479 256H529C557 256 579 278 579 306H529C501 306 479 284 479 256Z " transform="matrix(-0.3668355903547544,-0.20334028812866037,0.20334028812866037,-0.3668355903547544,665.9174063335115,491.64781330974733)" opacity="0.64"></path></g></svg>